<svg width="1835" height="1642" viewBox="0 0 1835 1642" fill="none" xmlns="http://www.w3.org/2000/svg">
<path d="M1633.45 230.237C1642.18 192.524 1622.42 143.438 1572.25 111.967C1480.34 60.7734 1321.84 68.9258 1133.18 185.12C1106 201.864 1068.26 226.942 1025.04 255.661C917.447 327.158 775.901 421.216 678.707 465.407C493.343 549.686 353.707 475.673 374.037 348.391C392.257 234.302 528.253 158.784 639.211 158.718C719.497 158.718 738.917 194.619 738.917 194.619C738.917 194.619 646.728 171.552 541.839 255.203C447.598 330.372 503.686 479.667 649.155 423.492C843.622 348.396 937.343 283.979 1067.32 194.64L1067.35 194.619C1356.84 -4.35303 1516.34 -38.2593 1633.45 36.6279C1724.92 95.123 1676.9 196.715 1633.45 230.237Z" transform="translate(0.156494)" fill="#36A6E5"/>
<path d="M1678.3 404.514C1676.39 400.088 1674.72 395.56 1673.27 390.979L1673.48 394.972C1673.48 394.972 1662.16 443.75 1634.84 465.629C1607.52 487.508 1584.09 471.659 1577.24 453.312C1562.66 414.126 1559.88 386.758 1558.5 356.351C1557.37 331.581 1560.1 304.362 1568.53 290.518C1576.96 276.673 1600.55 261.955 1615.04 266.387C1621.55 268.378 1619.59 275.97 1616.53 287.851C1614.83 294.454 1612.79 302.383 1611.67 311.412C1607.26 346.863 1609.14 406.354 1616.44 420.564C1623.75 434.775 1630.9 428.57 1642.59 416.273C1651.43 406.97 1663.88 386.21 1669.41 376.655C1663 348.163 1663.6 319.667 1664.87 302.869C1666.03 287.046 1682.94 267.354 1704.1 267.469C1718.57 267.548 1716.87 284.658 1714.76 305.91C1713.78 315.748 1712.72 326.474 1713.13 336.808C1715.06 385.566 1722.67 406.985 1746.62 396.979C1767.99 387.994 1781.39 357.925 1781.39 357.925L1788.5 374.977C1788.5 374.977 1772.86 409.377 1745.3 429.504C1717.74 449.632 1693.92 440.725 1678.3 404.514Z" transform="translate(0.156494)" fill="#36A6E5"/>
<path d="M1442.21 461.638C1435.04 432.13 1435.63 402.164 1436.95 384.759C1438.16 368.944 1455.02 349.243 1476.18 349.358C1490.65 349.438 1488.95 366.548 1486.84 387.8C1485.86 397.638 1484.8 408.363 1485.21 418.697C1487.14 467.456 1494.75 488.875 1518.7 478.868C1540.07 469.884 1553.47 439.814 1553.47 439.814L1560.58 456.866C1560.58 456.866 1544.94 491.267 1517.38 511.394C1489.82 531.521 1466 522.614 1450.38 486.403C1448.99 483.187 1447.73 479.916 1446.59 476.61L1446.72 479.194C1446.72 479.194 1435.41 527.973 1408.08 549.852C1380.76 571.73 1357.34 555.882 1350.49 537.535C1335.88 498.373 1333.09 471.005 1331.71 440.598C1330.59 415.828 1333.32 388.609 1341.75 374.765C1350.18 360.92 1373.76 346.202 1388.25 350.634C1394.76 352.625 1392.81 360.217 1389.75 372.098C1388.04 378.701 1386 386.63 1384.88 395.659C1380.47 431.11 1382.35 490.601 1389.66 504.812C1396.96 519.022 1404.11 512.817 1415.8 500.521C1424.42 491.455 1436.47 471.499 1442.21 461.638Z" transform="translate(0.156494)" fill="#36A6E5"/>
<path fill-rule="evenodd" clip-rule="evenodd" d="M714.021 603.574C704.534 606.691 695.689 611.137 687.622 616.781C688.066 612.095 687.806 608.905 685.802 604.763C679.037 590.771 627.631 601.396 627.631 640.069C627.631 679.788 631.472 720.545 635.346 761.657C638.231 792.268 641.134 823.075 642.485 853.797C650.439 1034.82 568.213 1110.54 568.213 1110.54C568.213 1110.54 659.583 1068.49 685.87 975.223C700.942 921.766 701.599 870.883 698.046 822.421C707.143 823.833 716.321 823.655 724.847 822.484C760.132 817.626 815.398 797.331 815.398 709.17C815.432 605.268 771.968 584.535 714.021 603.574ZM762.107 731.081C759.65 768.935 745.805 790.745 723.041 791.205C708.624 791.496 685.445 766.522 688.542 703.077C691.38 645.04 719.271 631.027 736.201 641.955C753.131 652.883 764.822 689.738 762.14 731.069L762.107 731.081Z" transform="translate(0.156494)" fill="#36A6E5"/>
<path d="M1143.88 513.815C1131.69 529.991 1128.87 554.023 1128.87 554.023C1128.87 554.023 1130.38 571.854 1135.18 591.098C1129.89 599.351 1123.96 607.892 1119.11 612.99C1107.42 625.287 1100.27 631.492 1092.96 617.281C1085.66 603.07 1083.78 543.58 1088.19 508.129C1089.31 499.1 1091.35 491.171 1093.05 484.567C1096.11 472.687 1098.07 465.095 1091.56 463.104C1077.09 458.66 1053.51 473.389 1045.08 487.233C1036.65 501.078 1033.91 528.297 1035.04 553.066C1036.45 583.461 1039.21 610.842 1053.8 650.016C1060.65 668.363 1084.07 684.212 1111.39 662.333C1126.48 650.254 1136.68 629.978 1142.8 614.235C1145.76 620.981 1149.31 626.958 1153.55 631.25C1168.18 646.065 1192.51 634.15 1209.85 612.29C1217.68 602.421 1223.76 590.296 1228.08 579.964C1243.09 600.561 1262.88 603.201 1285.09 586.978C1312.65 566.851 1328.3 532.45 1328.3 532.45L1321.16 515.354C1321.16 515.354 1307.76 545.424 1286.39 554.408C1262.44 564.415 1254.83 542.996 1252.9 494.237C1252.49 483.903 1253.55 473.178 1254.53 463.34C1256.64 442.088 1258.34 424.978 1243.87 424.898C1222.71 424.783 1205.86 444.518 1204.67 460.343C1203.03 482.019 1202.51 523.177 1216.72 558.667C1208.53 569.69 1198.72 582.266 1193.27 586.971C1182.74 596.049 1177.4 593.441 1173.09 583.399C1171.83 580.443 1169.63 572.278 1167.63 562.216C1166.65 557.254 1167.5 547.451 1168.31 538.143C1168.94 530.932 1169.54 524.017 1169.24 519.879C1168.02 503.314 1165.09 502.873 1165.09 502.873C1165.09 502.873 1155.51 498.353 1143.88 513.815Z" transform="translate(0.156494)" fill="#36A6E5"/>
<path d="M702.164 234.902C682.074 243.031 642.263 259.14 611.762 282.015C573.215 310.926 563.125 331.878 556.095 346.477L556.091 346.485L556.055 346.559C554.758 349.25 553.564 351.728 552.312 353.998C545.376 333.005 562.978 280.566 605.643 257.594C652.231 232.507 683.582 233.022 701.197 233.311C702.017 233.324 702.806 233.337 703.567 233.348C704.399 233.358 705.195 233.365 705.957 233.365L704.737 233.861L702.164 234.902Z" transform="translate(0.156494)" fill="#36A6E5"/>
<path fill-rule="evenodd" clip-rule="evenodd" d="M833.964 651.042C833.964 587.81 864.952 541.149 911.141 525.97C969.089 506.931 1012.55 527.663 1012.52 631.565C1012.52 719.727 957.253 740.021 921.968 744.88C884.316 750.052 833.964 735.837 833.964 651.042ZM920.162 713.601C942.925 713.141 956.77 691.33 959.227 653.477L959.261 653.465C961.942 612.134 950.252 575.278 933.322 564.351C916.392 553.423 888.501 567.436 885.662 625.473C882.566 688.918 905.745 713.892 920.162 713.601Z" transform="translate(0.156494)" fill="#36A6E5"/>
<path d="M1424.36 877.652C1424.5 878.048 1424.64 878.443 1424.78 878.838C1424.93 879.257 1425.09 879.676 1425.24 880.094C1438.66 916.298 1461.5 926.216 1489.48 907.974C1499.97 901.134 1508.93 892.24 1516.02 883.793C1512.64 878.41 1509.09 872.564 1505.53 866.411C1500.63 870.49 1495.19 874.021 1489.48 876.065C1465.55 884.626 1459.19 863.287 1459.81 815.481C1459.95 804.396 1462.19 792.961 1464.21 782.698C1468.01 763.329 1470.99 748.135 1457.46 747.336C1436.78 746.113 1419.3 764.603 1417.31 780.007C1415.17 796.614 1413.1 825.046 1418.19 853.666C1406.8 863.771 1388.95 876.525 1373.63 873.979C1355.91 871.028 1358.4 836.495 1358.4 836.495L1358.14 837.87L1358.26 836.902L1358.35 836.197L1358.43 835.553C1359.52 827.217 1361.43 817.785 1363.29 808.601L1363.29 808.589C1368.03 785.207 1372.44 763.433 1362.2 765.422C1347.94 768.192 1324.93 781.667 1315.18 801.323C1315.18 801.323 1299.4 844.338 1313.62 901.096C1335.23 987.406 1371.36 994.553 1371.36 994.553C1371.36 994.553 1362.49 957.932 1358.35 913.627C1367.17 921.812 1380.45 928.053 1396.14 915.793C1409.35 905.454 1418.89 889.031 1424.36 877.652Z" transform="translate(0.156494)" fill="#36A6E5"/>
<path fill-rule="evenodd" clip-rule="evenodd" d="M1155.38 1018.87C1152.35 1010.67 1150.02 1002.23 1148.27 993.83L1147.56 993.907L1146.71 993.995L1145.65 994.1C1144.83 994.177 1144.11 994.239 1143.48 994.289C1142.84 994.341 1142.3 994.38 1141.87 994.408C1141.12 994.458 1140.73 994.475 1140.73 994.475L1123.36 982.086C1123.36 982.086 1132.44 980.177 1145.43 976.615C1144.1 965.881 1143.59 955.529 1143.62 946.177L1143.36 945.974L1143.72 939.609C1143.86 935.003 1144.12 930.709 1144.46 926.814L1144.48 926.599C1144.48 926.599 1144.48 883.965 1180.68 848.695C1211.34 820.938 1251.38 827.169 1269.41 843.414C1293.86 865.5 1287.95 915.501 1261.78 943.29C1241.68 964.632 1215.46 977.116 1192.57 984.4C1198.26 1010.54 1212.68 1021.03 1230.86 1014.82C1262.47 1004.01 1292.25 967.369 1292.25 967.369L1298.33 984.411C1298.33 984.411 1272.91 1024.17 1230.86 1046.75C1201.38 1062.54 1168.8 1055.07 1155.38 1018.87ZM1232.56 932.76C1225.84 943.961 1209.06 953.642 1190.62 961.389C1191.29 946.04 1193.7 924.645 1201.13 905.298C1217.8 861.888 1259.08 888.547 1232.56 932.76Z" transform="translate(0.156494)" fill="#36A6E5"/>
<path d="M890.374 926.25C890.374 926.25 890.375 1025.93 876.665 1096.86C867.791 1142.77 849.17 1183.97 837.138 1207.32C824.957 1215.25 815.461 1223.33 810.213 1231.73C789.121 1265.49 805.557 1299.23 805.557 1299.23C805.557 1299.23 807.397 1278.52 830.251 1254.93C843.97 1240.77 870.784 1233.79 902.964 1225.42C960.285 1210.5 1034.63 1191.15 1082.33 1118.87C1128.73 1048.55 1118.65 954.5 1082.33 897.281C1041.91 833.668 940.985 811.959 840.797 854.144C740.609 896.328 714.221 1004.99 744.816 1052.44C775.411 1099.9 819.705 1073.54 819.705 1073.54C819.705 1073.54 782.838 992.365 822.869 937.48C862.899 882.596 970.48 855.456 1022.21 919.619C1066.48 974.515 1054.21 1086.73 977.919 1134.12C956.771 1147.25 931.089 1159.44 906.08 1171.31L906.07 1171.31C902.433 1173.04 898.811 1174.76 895.219 1176.47C904.084 1160.09 922.013 1120.07 922.013 1064.45C922.024 993.745 890.374 926.25 890.374 926.25Z" transform="translate(0.156494)" fill="#36A6E5"/>
<path d="M1582.92 684.238C1564.89 683.802 1532.11 707.595 1524.84 720.147C1517.58 732.699 1491.35 844.862 1544.84 883.814C1588.54 915.635 1646.88 886.802 1661.08 844.862C1668.98 821.465 1667.43 799.389 1660.24 782.472C1673.39 773.884 1683.55 761.327 1689.18 746.529L1683.53 734.447C1683.53 734.447 1672.86 751.15 1655.83 757.192C1653.27 758.099 1649.04 759.154 1644.3 760.199C1637.02 754.07 1628.46 750.535 1619.45 750.419C1571.45 749.807 1567.21 782.591 1570.56 787.812C1573.92 793.035 1577.62 797.951 1588.54 792.958C1600.81 787.387 1616.78 791.167 1623.42 802.583C1636.37 824.88 1625.56 863.288 1590.77 860.938C1572.13 859.683 1553.5 831.718 1558.79 782.559C1561.31 759.105 1571.02 735.752 1578.53 717.693C1586.76 697.899 1592.34 684.467 1582.92 684.238Z" transform="translate(0.156494)" fill="#36A6E5"/>
<path fill-rule="evenodd" clip-rule="evenodd" d="M509.403 683.521C463.213 698.701 432.226 745.362 432.226 808.594C432.226 893.389 482.578 907.604 520.23 902.432C555.514 897.574 610.78 883.359 610.78 790.239C610.792 686.326 567.317 664.448 509.403 683.521ZM556.367 811.028C553.91 848.882 541.187 870.692 518.424 871.152C504.007 871.444 480.828 846.47 483.924 783.025C486.763 724.988 514.654 710.975 531.584 721.902C548.514 732.83 559.049 769.674 556.367 811.006V811.028Z" transform="translate(0.156494)" fill="#36A6E5"/>
<path d="M404.86 649.271C382.217 657.621 383.413 684.284 404.169 690.029C436.726 699.04 461.129 635.705 402.158 611.953C358.519 594.376 286.655 611.696 267.255 710.155C266.87 712.11 266.494 714.057 266.128 715.994C260.063 705.254 253.29 695.723 245.892 687.627C178.959 614.391 83.6171 660.475 47.0187 726.567C18.2907 772.566 15.392 825.401 34.3327 854.782C64.9279 902.239 109.221 875.874 109.221 875.874C109.221 875.874 72.3547 794.703 112.385 739.818C117.681 732.559 124.158 725.784 131.531 719.643C157.401 699.65 188.221 698.233 210.488 735.561C248.774 799.742 231.039 984.13 167.804 1071.85C103.315 1161.3 24.6208 1124.97 32.5693 1028.48C-75.2393 1194.39 110.97 1234.53 208.583 1121.52C245.856 1078.37 270.543 1028.43 284.807 977.634C334.253 1077.79 451.707 1048.8 472.838 920.484C468.46 919.218 464.471 917.804 460.851 916.312C420.158 1010.18 343.468 985.281 328.236 914.127C310.805 832.697 313.111 754.561 337.246 694.633C356.669 646.409 396.965 632.965 404.86 649.271Z" transform="translate(0.156494)" fill="#36A6E5"/>
<path d="M1515.98 1043.77C1849.85 720.062 2009.71 1213.92 1546.44 1253.72C1526.43 1255.44 1505.33 1257.06 1483.46 1258.73L1483.34 1258.74C1215.51 1279.23 833.939 1308.43 977.66 1641.57C819.924 1559.16 818.668 1418.25 891.308 1344.44C983.453 1250.81 1136.37 1242.77 1297.29 1234.3C1402.51 1228.76 1511.15 1223.04 1608.44 1193.1C1795.38 1135.57 1777.27 898.611 1515.98 1043.77Z" transform="translate(0.156494)" fill="#36A6E5"/>
<path d="M1545.59 1088.31C1582.88 1071.05 1624.01 1059.32 1645.43 1056.51L1643.02 1056.06C1621.25 1051.99 1588.28 1045.83 1542.27 1063.78C1497.13 1081.38 1474.71 1124.87 1470.01 1146.94C1471.85 1145.08 1473.85 1142.84 1476.13 1140.31C1487.83 1127.27 1506.63 1106.34 1545.59 1088.31Z" transform="translate(0.156494)" fill="#36A6E5"/>
<path d="M1034.84 288C1065.84 260.333 1156.16 199.566 1262.34 158.5C1443.34 88.5 1520.84 136.5 1541.84 158.5C1493.34 148 1411.34 136 1297.34 170.5C1155.44 213.444 1053.02 274.167 1034.84 288Z" transform="translate(0.156494)" fill="#36A6E5"/>
</svg>
